<?xml version="1.0" encoding="utf-8"?>
<svg xmlns="http://www.w3.org/2000/svg" viewBox="0 0 1000 1000">
	<style type="text/css">
		.st0{fill:#ffffff;}
</style>
	<g>
		<polygon class="st0"
			points="145.9,643 159.7,643.2 159.7,683.2 168.8,683.2 168.8,643.2 182.2,642.8 182.6,638.4 146.3,638.4 	" />
		<path class="st0"
			d="M213.4,654.8c-0.8-0.7-1.7-1.3-2.8-1.7c-1-0.4-2.2-0.5-3.4-0.5c-1.1,0-2.1,0.1-3.2,0.4
		c-1.1,0.3-2.2,0.6-3.2,1.1c-1,0.4-2,0.9-2.8,1.4c-0.9,0.5-1.6,0.9-2.2,1.3h-0.1c0-0.7,0-1.4,0-2.1c0-0.6,0.1-1.2,0.1-1.9
		c0-0.7,0-1.2,0-1.8v-18.6l-9,1.7v49.1h9v-22.7c0.5-0.3,1.1-0.7,1.7-1c0.6-0.3,1.3-0.6,1.9-0.8c0.6-0.2,1.3-0.4,1.9-0.6
		c0.6-0.1,1.2-0.2,1.7-0.2c1.4,0,2.4,0.4,3,1.3c0.6,0.8,0.9,2.2,0.9,3.9v20.1h9v-21.7c0-1.5-0.2-2.8-0.7-3.9
		C214.9,656.5,214.2,655.6,213.4,654.8z" />
		<path class="st0"
			d="M248.9,676.4c-0.9,0.3-1.8,0.6-2.9,0.9c-1.1,0.3-2.2,0.5-3.3,0.7c-1.2,0.2-2.3,0.3-3.3,0.3
		c-1.3,0-2.4-0.2-3.4-0.6c-1-0.4-1.8-1-2.4-1.7c-0.6-0.7-1.1-1.6-1.4-2.6c-0.3-1-0.5-2.1-0.5-3.2v-1.3l9.9-0.7
		c1.5-0.1,2.8-0.3,3.9-0.4c1.1-0.2,2-0.3,2.7-0.6c0.7-0.2,1.3-0.5,1.8-0.8c0.5-0.3,0.8-0.6,1.1-1v-0.4c-0.4-2.4-1.1-4.4-2-6
		c-0.9-1.6-1.9-2.9-3.1-3.8c-1.2-1-2.5-1.6-3.9-2.1c-1.4-0.4-2.9-0.6-4.4-0.6c-2.2,0-4.2,0.3-6.1,0.9c-1.9,0.6-3.5,1.5-4.9,2.8
		c-1.4,1.3-2.5,3-3.3,5.1c-0.8,2.1-1.2,4.6-1.2,7.7c0,2.7,0.3,5,1,6.8c0.7,1.9,1.6,3.4,2.8,4.6c1.2,1.2,2.6,2,4.2,2.5
		c1.6,0.5,3.4,0.8,5.3,0.8c1.6,0,3.2-0.2,4.7-0.5c1.5-0.4,3-0.8,4.3-1.4c1.4-0.6,2.6-1.3,3.8-2c1.2-0.7,2.3-1.4,3.2-2.1l-0.7-2.1
		C250.4,675.8,249.7,676,248.9,676.4z M231.9,662.9c0.1-0.8,0.2-1.6,0.4-2.3c0.2-0.7,0.4-1.3,0.6-1.9c0.2-0.5,0.5-0.9,0.7-1.1
		c0.4-0.3,0.9-0.5,1.5-0.7c0.5-0.1,1.1-0.2,1.6-0.2c0.8,0,1.5,0.3,2.1,0.8c0.6,0.5,1.1,1.2,1.4,1.9c0.4,0.8,0.7,1.7,0.9,2.6
		c0.2,0.9,0.4,1.8,0.5,2.7l-9.9,0.4C231.7,664.5,231.8,663.8,231.9,662.9z" />
		<polygon class="st0"
			points="297.3,638.4 285.9,660.4 274.9,638.4 264.4,638.4 279,666 279,683.2 288.2,683.2 288.2,666 
		302.8,638.4 	" />
		<path class="st0"
			d="M326.9,676.4c-0.9,0.3-1.8,0.6-2.9,0.9c-1.1,0.3-2.2,0.5-3.3,0.7c-1.2,0.2-2.3,0.3-3.3,0.3
		c-1.3,0-2.4-0.2-3.4-0.6c-1-0.4-1.8-1-2.4-1.7c-0.6-0.7-1.1-1.6-1.4-2.6c-0.3-1-0.5-2.1-0.5-3.2v-1.3l9.9-0.7
		c1.5-0.1,2.8-0.3,3.9-0.4c1.1-0.2,2-0.3,2.7-0.6c0.7-0.2,1.3-0.5,1.8-0.8c0.5-0.3,0.8-0.6,1.1-1v-0.4c-0.4-2.4-1.1-4.4-2-6
		c-0.9-1.6-1.9-2.9-3.1-3.8c-1.2-1-2.5-1.6-3.9-2.1c-1.4-0.4-2.9-0.6-4.4-0.6c-2.2,0-4.2,0.3-6.1,0.9c-1.9,0.6-3.5,1.5-4.9,2.8
		c-1.4,1.3-2.5,3-3.3,5.1c-0.8,2.1-1.2,4.6-1.2,7.7c0,2.7,0.3,5,1,6.8c0.7,1.9,1.6,3.4,2.8,4.6c1.2,1.2,2.6,2,4.2,2.5
		c1.6,0.5,3.4,0.8,5.3,0.8c1.6,0,3.2-0.2,4.7-0.5c1.5-0.4,3-0.8,4.3-1.4c1.4-0.6,2.6-1.3,3.8-2c1.2-0.7,2.3-1.4,3.2-2.1l-0.7-2.1
		C328.4,675.8,327.7,676,326.9,676.4z M309.9,662.9c0.1-0.8,0.2-1.6,0.4-2.3c0.2-0.7,0.4-1.3,0.6-1.9c0.2-0.5,0.5-0.9,0.7-1.1
		c0.4-0.3,0.9-0.5,1.5-0.7c0.5-0.1,1.1-0.2,1.6-0.2c0.8,0,1.5,0.3,2.1,0.8c0.6,0.5,1.1,1.2,1.4,1.9c0.4,0.8,0.7,1.7,0.9,2.6
		c0.2,0.9,0.4,1.8,0.5,2.7l-9.9,0.4C309.8,664.5,309.8,663.8,309.9,662.9z" />
		<path class="st0"
			d="M359.4,674v-13.8c0-1.4-0.2-2.6-0.6-3.6c-0.4-1-1-1.7-1.7-2.3c-0.7-0.6-1.7-1-2.8-1.2
		c-1.1-0.2-2.3-0.4-3.7-0.4c-1.3,0-2.5,0.1-3.7,0.3c-1.2,0.2-2.5,0.5-3.7,0.8c-1.2,0.3-2.4,0.7-3.6,1.2c-1.2,0.4-2.3,0.9-3.4,1.4
		l1.2,3.1c1.6-0.6,3.1-1.1,4.6-1.3c1.5-0.3,2.8-0.4,3.9-0.4c1.6,0,2.7,0.3,3.4,0.8c0.7,0.5,1,1.4,1,2.6v4.3l-5.4,0.2
		c-2.2,0.1-4,0.3-5.5,0.7c-1.5,0.4-2.7,1-3.6,1.7c-0.9,0.8-1.6,1.7-2,2.9c-0.4,1.2-0.6,2.5-0.6,4.1c0,2.9,0.7,5.1,2.1,6.6
		c1.4,1.5,3.3,2.2,5.8,2.2c1.1,0,2.1-0.1,3-0.3c0.9-0.2,1.7-0.5,2.5-0.9c0.8-0.4,1.6-0.8,2.3-1.2c0.7-0.5,1.5-0.9,2.2-1.4
		c0.2,0.4,0.5,0.9,0.7,1.3c0.3,0.4,0.6,0.8,1.1,1.2c0.4,0.4,0.9,0.7,1.5,0.9c0.6,0.2,1.3,0.3,2.1,0.3c0.8,0,1.5-0.1,2.3-0.3
		c0.8-0.2,1.5-0.4,2.3-0.7c0.7-0.3,1.4-0.7,2.1-1.1c0.6-0.4,1.2-0.8,1.7-1.3v-2c-1.3,0.3-2.3,0.5-3.1,0.5
		C360.2,678.8,359.4,677.2,359.4,674z M348.1,678.3c-0.9,0.2-1.9,0.3-2.8,0.3c-0.9,0-1.6-0.4-2-1.3c-0.4-0.9-0.6-2-0.6-3.3
		c0-0.4,0-0.8,0-1.3c0-0.5,0.1-0.9,0.1-1.4c0.1-0.4,0.1-0.8,0.2-1.2c0.1-0.3,0.2-0.6,0.3-0.7c0.3-0.3,1-0.6,2.1-0.9
		c1.1-0.2,2.8-0.4,5-0.4c0,1.2,0,2.3,0,3.3c0,1.1,0.1,2,0.1,2.8c0,0.8,0.1,1.5,0.1,2.1c0,0.5,0.1,0.9,0.1,1
		C349.9,677.7,349,678,348.1,678.3z" />
		<path class="st0"
			d="M382,653.3c-0.4,0.1-0.9,0.4-1.3,0.8c-0.4,0.4-0.9,0.8-1.2,1.3c-0.4,0.5-0.8,0.9-1.1,1.4
		c-0.3,0.5-0.6,0.9-0.9,1.2h0l-0.8-4.8h-8v29.9h9v-21.5c0.4-0.5,0.8-0.9,1.2-1.2c0.4-0.3,0.7-0.6,1.1-0.8c0.4-0.2,0.7-0.3,1.1-0.4
		c0.4-0.1,0.9-0.1,1.4-0.1c0.7,0,1.5,0.1,2.3,0.2c0.8,0.1,1.5,0.3,2.2,0.6l1-7.4c-1.1,0-2.2,0-3.2,0.1
		C383.7,652.8,382.8,653,382,653.3z" />
		<path class="st0"
			d="M429.9,656.7c-1.3-1.3-3-2.3-4.9-3c-2-0.7-4.3-1-6.8-1c-2.6,0-4.9,0.4-6.9,1.1c-2,0.7-3.6,1.8-5,3.1
		c-1.3,1.3-2.3,3-3,4.9c-0.7,1.9-1,4.1-1,6.5c0,5.1,1.4,8.9,4.1,11.6c2.7,2.6,6.6,4,11.8,4c2.6,0,4.9-0.4,6.8-1.1
		c2-0.7,3.6-1.7,4.9-3.1c1.3-1.4,2.3-3,3-4.9c0.7-1.9,1-4.1,1-6.5c0-2.5-0.3-4.7-1-6.6C432.2,659.6,431.2,658,429.9,656.7z
		 M424.5,672c-0.1,1.2-0.2,2.3-0.4,3.2c-0.2,0.9-0.4,1.7-0.7,2.3c-0.3,0.6-0.6,1-0.9,1.2c-0.5,0.3-1.2,0.5-2,0.7
		c-0.8,0.1-1.6,0.2-2.5,0.2c-2.3,0-4-0.9-4.9-2.8c-1-1.8-1.5-4.7-1.5-8.6c0-1.3,0-2.5,0.1-3.7c0.1-1.2,0.2-2.2,0.3-3.2
		c0.2-0.9,0.4-1.7,0.6-2.3c0.2-0.6,0.5-1,0.9-1.2c0.6-0.4,1.4-0.6,2.2-0.8c0.8-0.2,1.6-0.2,2.5-0.2c2.2,0,3.9,0.9,4.9,2.8
		c1,1.9,1.5,4.8,1.5,8.6C424.6,669.6,424.6,670.8,424.5,672z" />
		<path class="st0"
			d="M455.6,633.2c-1.8,0-3.6,0.4-5.4,1.3c-1.8,0.9-3.3,2-4.7,3.4c-1.4,1.4-2.5,3-3.4,4.8c-0.9,1.8-1.3,3.6-1.3,5.5
		v5.4c-0.3,0.1-0.7,0.2-1.2,0.3c-0.5,0.1-1,0.3-1.5,0.4c-0.6,0.2-1.2,0.4-1.8,0.6l-0.4,2.4c0.7,0,1.4,0,2.1,0h2.9v25.8h9v-25.8
		c0.8-0.1,1.6-0.1,2.4-0.2c0.8-0.1,1.6-0.1,2.4-0.2c0.9-0.1,1.7-0.2,2.6-0.3l0.5-3.5h-7.9v-4.5c0-1.1,0-2.2,0-3.3
		c0-1.1,0.1-2.1,0.2-3c0.1-0.9,0.2-1.7,0.3-2.3c0.1-0.6,0.3-1.1,0.5-1.3c0.3-0.3,0.8-0.6,1.4-0.7c0.6-0.1,1.2-0.1,1.7-0.1
		c0.8,0,1.7,0.1,2.7,0.3c1,0.2,1.8,0.4,2.6,0.5l1.5-5.2c-0.7-0.1-1.5-0.2-2.5-0.3C457.3,633.2,456.4,633.2,455.6,633.2z" />
		<path class="st0"
			d="M487.1,638.8l-17.8,44.4h5.8l5.5-14.9l16.8-0.2l5.2,15.1h9.8L496,637.3L487.1,638.8z M482.2,663.9l7.1-19.3
		l6.7,19.3H482.2z" />
		<path class="st0"
			d="M529.6,653.3c-0.4,0.1-0.9,0.4-1.3,0.8c-0.4,0.4-0.9,0.8-1.2,1.3c-0.4,0.5-0.8,0.9-1.1,1.4
		c-0.3,0.5-0.6,0.9-0.9,1.2h0l-0.8-4.8h-8v29.9h9v-21.5c0.4-0.5,0.8-0.9,1.2-1.2c0.4-0.3,0.7-0.6,1.1-0.8c0.4-0.2,0.7-0.3,1.1-0.4
		c0.4-0.1,0.9-0.1,1.4-0.1c0.7,0,1.5,0.1,2.3,0.2c0.8,0.1,1.5,0.3,2.2,0.6l1-7.4c-1.1,0-2.2,0-3.2,0.1
		C531.3,652.8,530.4,653,529.6,653.3z" />
		<path class="st0"
			d="M562.7,674v-13.8c0-1.4-0.2-2.6-0.6-3.6c-0.4-1-1-1.7-1.7-2.3c-0.7-0.6-1.7-1-2.8-1.2
		c-1.1-0.2-2.3-0.4-3.7-0.4c-1.3,0-2.5,0.1-3.7,0.3c-1.2,0.2-2.5,0.5-3.7,0.8c-1.2,0.3-2.4,0.7-3.6,1.2c-1.2,0.4-2.3,0.9-3.4,1.4
		l1.2,3.1c1.6-0.6,3.1-1.1,4.6-1.3c1.5-0.3,2.8-0.4,3.9-0.4c1.6,0,2.7,0.3,3.4,0.8c0.7,0.5,1,1.4,1,2.6v4.3l-5.4,0.2
		c-2.2,0.1-4,0.3-5.5,0.7c-1.5,0.4-2.7,1-3.6,1.7c-0.9,0.8-1.6,1.7-2,2.9c-0.4,1.2-0.6,2.5-0.6,4.1c0,2.9,0.7,5.1,2.1,6.6
		s3.3,2.2,5.8,2.2c1.1,0,2.1-0.1,3-0.3c0.9-0.2,1.7-0.5,2.5-0.9c0.8-0.4,1.6-0.8,2.3-1.2c0.7-0.5,1.5-0.9,2.2-1.4
		c0.2,0.4,0.5,0.9,0.7,1.3c0.3,0.4,0.6,0.8,1.1,1.2c0.4,0.4,0.9,0.7,1.5,0.9c0.6,0.2,1.3,0.3,2.1,0.3c0.8,0,1.5-0.1,2.3-0.3
		c0.8-0.2,1.5-0.4,2.3-0.7c0.7-0.3,1.4-0.7,2.1-1.1c0.6-0.4,1.2-0.8,1.7-1.3v-2c-1.3,0.3-2.3,0.5-3.1,0.5
		C563.5,678.8,562.7,677.2,562.7,674z M551.4,678.3c-0.9,0.2-1.9,0.3-2.8,0.3c-0.9,0-1.6-0.4-2-1.3c-0.4-0.9-0.6-2-0.6-3.3
		c0-0.4,0-0.8,0-1.3c0-0.5,0.1-0.9,0.1-1.4c0.1-0.4,0.1-0.8,0.2-1.2c0.1-0.3,0.2-0.6,0.3-0.7c0.3-0.3,1-0.6,2.1-0.9
		c1.1-0.2,2.8-0.4,5-0.4c0,1.2,0,2.3,0,3.3c0,1.1,0.1,2,0.1,2.8c0,0.8,0.1,1.5,0.1,2.1c0,0.5,0.1,0.9,0.1,1
		C553.2,677.7,552.3,678,551.4,678.3z" />
		<path class="st0"
			d="M598.3,655.9c-1.1-1.2-2.4-2-3.9-2.5c-1.5-0.5-3-0.8-4.6-0.8c-1.8,0-3.4,0.3-4.9,1c-1.5,0.6-2.8,1.4-4,2.2
		c0-0.6,0-1.1,0-1.6c0-0.5,0-1,0-1.5c0-0.6,0-1.1,0-1.6v-18.7l-9,1.8v48c2.3,0.6,4.7,1,7.1,1.3c2.4,0.2,4.6,0.4,6.6,0.4
		c2.5,0,4.8-0.4,6.9-1.1c2-0.7,3.8-1.8,5.2-3.2c1.4-1.4,2.5-3.1,3.3-5.1c0.8-2,1.1-4.3,1.1-6.9c0-2.7-0.3-5-1-6.8
		C600.4,658.6,599.5,657.1,598.3,655.9z M592,674.6c-0.5,1.7-1,2.9-1.5,3.3c-0.5,0.4-1.2,0.8-2.1,1c-0.9,0.2-2.1,0.3-3.4,0.3
		c-0.7,0-1.4,0-2.1-0.1c-0.7-0.1-1.4-0.2-2-0.3v-19.7c0.8-0.3,1.7-0.6,2.7-0.8c1-0.2,1.9-0.3,2.9-0.3c1.9,0,3.4,0.8,4.6,2.4
		c1.2,1.6,1.8,4.1,1.8,7.5C592.8,670.6,592.5,672.8,592,674.6z" />
		<polygon class="st0" points="607.4,641.9 613,647.5 618.6,641.9 613,636.3 	" />
		<rect x="608.6" y="653.3" class="st0" width="9" height="29.9" />
		<path class="st0"
			d="M645.2,678.2c-1.8,0.3-3.5,0.5-5.2,0.5c-1.1,0-2-0.2-2.8-0.5c-0.8-0.4-1.5-0.9-2-1.7c-0.5-0.8-0.9-1.8-1.2-3.1
		c-0.3-1.3-0.4-2.8-0.4-4.7c0-3.3,0.2-5.8,0.5-7.4c0.4-1.6,0.9-2.6,1.5-3c0.6-0.4,1.2-0.6,1.9-0.8c0.7-0.1,1.5-0.2,2.3-0.2
		c1.8,0,3.5,0.3,5.1,0.8c1.6,0.5,2.9,1,4,1.6l1.5-5.9c-1.4-0.3-2.9-0.6-4.5-0.8c-1.7-0.2-3.3-0.3-4.9-0.3c-2.7,0-5.1,0.4-7.2,1.1
		c-2.1,0.7-3.8,1.8-5.2,3.2c-1.4,1.4-2.5,3.1-3.2,5.2c-0.7,2-1.1,4.3-1.1,6.9c0,2.7,0.4,5,1.1,6.8c0.7,1.9,1.7,3.4,2.9,4.6
		c1.2,1.2,2.6,2,4.3,2.5c1.6,0.5,3.4,0.8,5.3,0.8c2.7,0,5.1-0.5,7.3-1.4c2.2-0.9,4.2-2,6-3.4l-0.8-2.2
		C648.6,677.4,647,677.9,645.2,678.2z" />
		<path class="st0"
			d="M694.3,641.6c-1.3-1.1-3-1.9-5.1-2.5c-2-0.6-4.4-0.9-7.2-0.9c-1.1,0-2.3,0-3.5,0c-1.2,0-2.4,0.1-3.6,0.1
		c-1.2,0-2.4,0.1-3.5,0.2c-1.1,0.1-2.2,0.1-3.1,0.2v44.6h9.1v-40.3c1.3-0.2,2.5-0.3,3.6-0.3c1.2,0,2.2,0.2,3.2,0.5
		c0.9,0.3,1.8,0.9,2.4,1.6c0.7,0.7,1.2,1.6,1.6,2.7c0.4,1.1,0.6,2.4,0.6,3.9c0,2-0.2,3.7-0.7,5c-0.4,1.3-1,2.3-1.8,3.1
		c-0.8,0.8-1.7,1.4-2.7,1.8c-1,0.4-2.2,0.7-3.4,1l-1.3,0.3l0.6,3.5h0.4c3.2,0,5.9-0.4,8.2-1.2c2.3-0.8,4.2-1.9,5.7-3.2
		c1.5-1.4,2.6-2.9,3.3-4.8c0.7-1.8,1-3.8,1-5.8c0-2-0.3-3.7-1-5.3C696.6,644,695.6,642.7,694.3,641.6z" />
		<path class="st0"
			d="M728.7,656.7c-1.3-1.3-3-2.3-4.9-3c-2-0.7-4.3-1-6.8-1c-2.6,0-4.9,0.4-6.9,1.1c-2,0.7-3.6,1.8-5,3.1
		c-1.3,1.3-2.3,3-3,4.9c-0.7,1.9-1,4.1-1,6.5c0,5.1,1.4,8.9,4.1,11.6c2.7,2.6,6.6,4,11.8,4c2.6,0,4.9-0.4,6.8-1.1
		c2-0.7,3.6-1.7,4.9-3.1c1.3-1.4,2.3-3,3-4.9c0.7-1.9,1-4.1,1-6.5c0-2.5-0.3-4.7-1-6.6C731,659.6,730,658,728.7,656.7z M723.3,672
		c-0.1,1.2-0.2,2.3-0.4,3.2c-0.2,0.9-0.4,1.7-0.7,2.3c-0.3,0.6-0.6,1-0.9,1.2c-0.5,0.3-1.2,0.5-2,0.7c-0.8,0.1-1.6,0.2-2.5,0.2
		c-2.3,0-4-0.9-4.9-2.8c-1-1.8-1.5-4.7-1.5-8.6c0-1.3,0-2.5,0.1-3.7c0.1-1.2,0.2-2.2,0.3-3.2c0.2-0.9,0.4-1.7,0.6-2.3
		c0.2-0.6,0.5-1,0.9-1.2c0.6-0.4,1.4-0.6,2.2-0.8c0.8-0.2,1.6-0.2,2.5-0.2c2.2,0,3.9,0.9,4.9,2.8c1,1.9,1.5,4.8,1.5,8.6
		C723.4,669.6,723.4,670.8,723.3,672z" />
		<path class="st0"
			d="M763.6,676.4c-0.9,0.3-1.8,0.6-2.9,0.9c-1.1,0.3-2.2,0.5-3.3,0.7c-1.2,0.2-2.3,0.3-3.3,0.3
		c-1.3,0-2.4-0.2-3.4-0.6c-1-0.4-1.8-1-2.4-1.7c-0.6-0.7-1.1-1.6-1.4-2.6c-0.3-1-0.5-2.1-0.5-3.2v-1.3l9.9-0.7
		c1.5-0.1,2.8-0.3,3.9-0.4c1.1-0.2,2-0.3,2.7-0.6c0.7-0.2,1.3-0.5,1.8-0.8c0.5-0.3,0.8-0.6,1.1-1v-0.4c-0.4-2.4-1.1-4.4-2-6
		c-0.9-1.6-1.9-2.9-3.1-3.8c-1.2-1-2.5-1.6-3.9-2.1c-1.4-0.4-2.9-0.6-4.4-0.6c-2.2,0-4.2,0.3-6.1,0.9c-1.9,0.6-3.5,1.5-4.9,2.8
		c-1.4,1.3-2.5,3-3.3,5.1c-0.8,2.1-1.2,4.6-1.2,7.7c0,2.7,0.3,5,1,6.8c0.7,1.9,1.6,3.4,2.8,4.6c1.2,1.2,2.6,2,4.2,2.5
		c1.6,0.5,3.4,0.8,5.3,0.8c1.6,0,3.2-0.2,4.7-0.5c1.5-0.4,3-0.8,4.3-1.4c1.4-0.6,2.6-1.3,3.8-2c1.2-0.7,2.3-1.4,3.2-2.1l-0.7-2.1
		C765.1,675.8,764.5,676,763.6,676.4z M746.7,662.9c0.1-0.8,0.2-1.6,0.4-2.3c0.2-0.7,0.4-1.3,0.6-1.9c0.2-0.5,0.5-0.9,0.7-1.1
		c0.4-0.3,0.9-0.5,1.5-0.7c0.5-0.1,1.1-0.2,1.6-0.2c0.8,0,1.5,0.3,2.1,0.8c0.6,0.5,1.1,1.2,1.4,1.9c0.4,0.8,0.7,1.7,0.9,2.6
		c0.2,0.9,0.4,1.8,0.5,2.7l-9.9,0.4C746.5,664.5,746.6,663.8,746.7,662.9z" />
		<path class="st0"
			d="M788,677.8c-0.6,0.1-1.2,0.1-1.8,0.2c-0.6,0-1,0.1-1.4,0.1c-1.3,0-2.2-0.4-2.6-1.1c-0.4-0.7-0.6-1.6-0.6-2.7
		v-16.8c1.2-0.1,2.3-0.1,3.5-0.3c1-0.1,2-0.2,3-0.3c1-0.1,1.9-0.2,2.6-0.3l0.4-3.3h-9.5l-0.1-5.2h-2.4l-9.7,6.5v1.8l3.4,1.1v20.6
		c0,1.2,0.2,2.2,0.5,3c0.4,0.8,0.8,1.3,1.4,1.8c0.6,0.4,1.3,0.7,2,0.9c0.8,0.1,1.5,0.2,2.3,0.2c1,0,2.1-0.1,3.2-0.3
		c1.1-0.2,2.3-0.5,3.3-0.9c1.1-0.4,2.1-0.8,3.1-1.2c1-0.5,1.9-0.9,2.6-1.4v-2.5c-0.4,0.1-0.9,0.1-1.5,0.2
		C789.3,677.7,788.7,677.8,788,677.8z" />
		<path class="st0"
			d="M814.5,660l1-7.4c-1.1,0-2.2,0-3.2,0.1c-1,0.1-1.9,0.3-2.6,0.5c-0.4,0.1-0.9,0.4-1.3,0.8
		c-0.4,0.4-0.9,0.8-1.2,1.3c-0.4,0.5-0.8,0.9-1.1,1.4c-0.3,0.5-0.6,0.9-0.9,1.2h0l-0.8-4.8h-8v29.9h9v-21.5c0.4-0.5,0.8-0.9,1.2-1.2
		c0.4-0.3,0.7-0.6,1.1-0.8c0.4-0.2,0.7-0.3,1.1-0.4c0.4-0.1,0.9-0.1,1.4-0.1c0.7,0,1.5,0.1,2.3,0.2C813,659.6,813.8,659.8,814.5,660
		z" />
		<path class="st0"
			d="M847.6,652.6l-7,1.2c0.1,0.2,0.1,0.4,0.2,0.8c0.1,0.3,0.2,0.7,0.2,1.2c0.1,0.4,0.1,0.9,0.2,1.4
		c0,0.5,0.1,0.9,0.1,1.3c0,1.5-0.1,3-0.2,4.3c-0.1,1.4-0.4,2.7-0.8,4.1c-0.4,1.4-0.9,2.7-1.5,4.1c-0.7,1.4-1.5,2.9-2.5,4.4h-0.1
		c-0.8-2.5-1.5-4.9-2.3-7.2c-0.8-2.3-1.6-4.4-2.3-6.2c-0.8-1.9-1.5-3.5-2.2-4.8c-0.7-1.3-1.4-2.3-2-2.9c-0.5-0.5-1.1-0.9-1.8-1.1
		c-0.7-0.2-1.5-0.3-2.4-0.3c-0.4,0-1,0-1.6,0.1c-0.6,0-1.2,0.1-1.9,0.2c-0.6,0.1-1.3,0.1-1.8,0.2c-0.6,0.1-1.1,0.2-1.4,0.2v2.8h0.2
		c0.3,0,0.7,0.1,1.2,0.2c0.5,0.1,0.9,0.4,1.4,0.8c0.5,0.4,1.1,1.4,1.9,2.9c0.8,1.5,1.7,3.4,2.8,5.7c1,2.3,2.1,5,3.3,8
		c1.2,3,2.4,6.3,3.6,9.8c-0.8,1.1-1.7,2.3-2.6,3.5c-1,1.2-2,2.4-3,3.5c-1,1.1-2,2.2-3,3.1c-1,0.9-1.8,1.7-2.5,2.3
		c-1.3,1.1-2.7,2-4.1,2.5c-1.4,0.6-2.7,0.9-3.8,0.9h-0.7v2.8c0.6,0.2,1.4,0.4,2.4,0.5c1,0.1,1.9,0.2,2.8,0.2c1.7,0,3.3-0.4,4.9-1.3
		c1.6-0.9,3.1-2.3,4.7-4.2c0.9-1.1,1.7-2.1,2.4-2.9c0.7-0.9,1.4-1.8,2.2-2.9c0.7-1.1,1.6-2.3,2.5-3.7c0.9-1.4,2.1-3.1,3.5-5.2
		c1.3-2,2.7-4.1,4.1-6.3c1.4-2.1,2.7-4.3,3.8-6.5c1.1-2.2,2.1-4.4,2.8-6.5c0.7-2.2,1.1-4.3,1.1-6.5c0-0.8-0.1-1.7-0.2-2.6
		C847.9,653.8,847.7,653.1,847.6,652.6z" />
		<path class="st0"
			d="M500.3,370.8c-3.7,59.2,13,66.6,13,66.6l14.8-24.1c0,0-18.3-12.4-11.1-45.3c11.1-50.9-6.5-71.3-6.5-71.3
		l-20.4,18.5C490.1,315.3,504,311.6,500.3,370.8z" />
		<path class="st0"
			d="M570.1,422.4v-0.9c0,0,10.4-0.8,13.6-0.3c15.5,2,42.5,11.1,56.7-9.3c17.3-24.7-18.5-58-18.5-58l-51.2,46.9
		l-4.2,0.3h-16.2V456l19.7-9.3V422.4z" />
		<path class="st0"
			d="M214.2,421.6v-1.5c0,0,47.7,0.1,58-0.3c13-0.5,25.6-3.8,25.8-6.6c0.3,3.8,11.7,6.8,25.7,7c0.4,0,0.9,0,1.5,0
		l0,0h5c3.6,0,8,0,12.3,0h121.9l0,0h16.7v-96.9c0-8.1-3.8-15.8-10.3-20.7l-1.5-1.2c-3.6-2.7-8.6-2.7-12.1,0l-11.8,9l7.3,5
		c5.5,3.8,8.8,10.1,8.8,16.7l1.1,69.5c-0.7,0-1.4,0.1-2,0.1v0h-17.9c-3.2-5.8-8.1-30.4-10.1-38.8c0-0.3-13.3,12.7-14.8,13.9
		l4.1,24.9c-12.7-5.5-18.2-24.9-20.5-26.9c0,0-11.6,10.4-11.9,13.6c0,1.7,4.1,8.1,7.5,13.3h-3.8c-17.9-6.4-20.3-28.4-22-30.1
		c-0.3-0.3-0.3,0-12.4,13.6c0.3,4.9,2.6,11,4.9,16.5h-33.3c-18.3-0.4-14.8-7.2-14.8-7.2l13.5-10.9c5.9-4.7,7.6-12.9,4.1-19.6
		c-2.4-4.6-16.5-13.6-35.2-11.5c-18.7,2.1-28.7,8.5-43.5,18.6c0,0,35.2,18.9,31.8,30.6l-72,0v-45.1l-20.6,8.3c0,0,0.2,55.3,0.2,59.1
		c0,0.3-1.7,11.1-10.7,11.1h-25.2l-12.6,19.7h40.4C202.9,454.9,213.6,440.8,214.2,421.6z" />
		<path class="st0"
			d="M842,517.4c11.1-50.9-6.5-71.3-6.5-71.3l-20.4,18.5c0,0,13.9-3.7,10.2,55.5c-3.7,59.2,13,66.6,13,66.6
		l14.8-24.1C853.1,562.8,834.8,550.4,842,517.4z" />
		<path class="st0"
			d="M786.8,569.6h19.7V546v-73.3c0-8.1-3.8-15.8-10.3-20.7l-1.5-1.2c-3.6-2.7-8.6-2.7-12.1,0l-11.8,9l7.3,5
		c5.5,3.8,8.8,10.1,8.8,16.7v69.2c-2.7,0-5.9,0-9.4,0c-0.4,0-0.6,0-0.8,0c-0.5,0-0.7,0-0.8,0c-0.3,0-0.8,0-1.5,0
		c-20.4,0-16.7-7.4-16.7-7.4l13.8-11.1c6-4.8,7.7-13.2,4.2-20c-2.5-4.7-16.9-13.9-36-11.7s-29.3,8.7-44.4,19
		c0,0,35.9,19.3,32.5,31.3h-35.8l0,0h-4.9v-46.1l-21.1,8.5c0,0,0.2,56.5,0.2,60.5c-1,12.8-14.3,11.8-26.1,11.3L627,605.1
		c26.3,1,59.8,3.7,59.8-34v-1.5h4.4c4.9,0,11.6,0.1,22.1-0.4c13.3-0.5,26.1-3.9,26.3-6.8c0.3,3.9,12,7,26.3,7.2
		c7.5,0.1,3.7,0,11.5-0.1v0H786.8z" />
		<path class="st0"
			d="M655.7,420.2h19.4h113.8h54.4c0.3,0,1.7-0.6,7.6-8.4c2.9-4.1,3.8-6.4,3.8-7.9c0-2-1.5-2.3-1.5-2.3h-15.7
		c-12.5-1.5-26.7-1.5-39.5-14.2c-2.9-2.9-7.9-8.1-7.9-12.2c3.5-1.5,7.9-2.3,12.2-2.3c8.7,0,18.9,3.5,23.3,11.6
		c3.8,0,12.8-14.5,12.8-18.6c0-0.6-0.3-0.9-0.3-1.5c-4.9-9-15.7-11.3-24.4-11.3c-7,0-14.2,1.7-19.8,6.1c-8.4,7-17.2,23-17.2,30.8
		c0,3.8,1.2,8.4,3.8,11.6h-105v-81.4c0-6.3-2.3-12.3-6.4-17c-5.8,4.4-12.3,8.3-19.2,11.7c3.7,3.8,5.8,8.8,5.8,14.2V420.2z" />
		<polygon class="st0" points="790.2,321.8 790.2,310.7 741.4,358.3 752.5,358.3 	" />
		<polygon class="st0" points="708.9,493.8 746.7,457.3 746.7,446.2 697.8,493.8 	" />
		<polygon class="st0" points="662.6,493.8 700.4,457.3 700.4,446.2 651.5,493.8 	" />
		<polygon class="st0" points="356,347.5 393.7,311 393.7,299.9 344.9,347.5 	" />
		<path class="st0"
			d="M327.6,343.9c5.8-0.2,13.1-7.9,24.9-20c9.7-9.9-0.2-22.3-4.2-26.5c-0.7,0.3-0.7,0.3-1.3,0.6
		c0.2,3.9,0.3,12.1-2.2,14.2c-2.3,1.9-7.1-1.6-9.9-3.9c-0.6,0.4-0.6,0.4-1.2,0.8c1.1,4.3,2.9,12.9-0.3,14.8c-2.8,1.7-7-1.3-9.6-3.5
		c-0.7,0.4-0.6,0.4-1.2,0.8c1.4,4.8,3,14.2-4.2,17.1c-0.2,0.1-0.3,0.3-0.2,0.5C319.1,339.8,322.6,344.1,327.6,343.9z" />
		<polygon class="st0" points="479,565.4 486.7,577.7 502,556.9 494.1,546.2 	" />
		<polygon class="st0" points="503.1,565.4 510.8,577.7 526,556.9 518.2,546.2 	" />
		<polygon class="st0" points="626.3,588.5 618.5,577.8 603.3,597 611.1,609.3 	" />
		<path class="st0"
			d="M589.9,597.8c0-4.3,0.2-8.9-2.7-13.1c-5-7.2-29.6-31.9-29.6-36.2c0-3.4,2.7-10.4,7.3-11.9l36.5,32.9h6.6
		l10.8,0v0h33v-64.9l-19.7,9.3v36.8c-5.5,0-10,0-13.8-0.1v0l-10.6,0l-48.1-43.3c0.3,0-22.4,16.2-22.4,39c0,4.3,2.7,11,8.1,17.5
		c5.4,6.5,18.1,20.5,18.1,20.5l-79.7-0.2l-15.5,20.9h121.2L589.9,597.8z" />
		<path class="st0"
			d="M526.1,493.1c-2.3,1.9-7.1-1.6-9.9-3.9c-0.6,0.4-0.6,0.4-1.2,0.8c1.1,4.3,2.9,12.9-0.3,14.8
		c-2.8,1.7-7-1.3-9.6-3.5c-0.7,0.4-0.6,0.4-1.2,0.8c1.4,4.8,3,14.2-4.2,17.1c-0.1,0.2-0.1,0.3-0.2,0.5c0.9,1.2,4.4,5.5,9.4,5.3
		c5.8-0.2,13.1-7.9,24.9-20c9.7-9.8-0.6-24.1-4.8-29c-0.7,0.3-0.7,0.3-1.3,0.6C528.1,481,528.6,491,526.1,493.1z" />
		<path class="st0"
			d="M266.7,326.7c0.8,4.4-11.7,12.4-11.7,12.4l-6.8,10.6c0,0,29.8-14.2,33.8-28.1c2.7-9.4-11.1-10.7-20.3-10.7
		c-4.8,0-9.4,2-12.8,5.3l-5.5,5.3C243.3,321.6,265.9,322.4,266.7,326.7z" />
		<path class="st0"
			d="M711.5,348.9c4.1,0,5.5-1.9,8.4-5.1l4.6-5.1c0,0-7.8-0.7-8.5-4.9c-0.7-4.2,15.6-18.2,15.6-18.2l0.1-3.8
		c0,0-25.2,13.6-28.6,26.8C700.8,347.6,707.7,348.9,711.5,348.9z" />
		<path class="st0"
			d="M767.1,593.7h-5.3c-4.2-0.5-9-0.5-13.2-4.8c-1-1-2.6-2.7-2.6-4.1c1.2-0.5,2.6-0.8,4.1-0.8
		c2.9,0,6.3,1.2,7.8,3.9c1.3,0,4.3-4.9,4.3-6.2c0-0.2-0.1-0.3-0.1-0.5c-1.7-3-5.3-3.8-8.2-3.8c-2.3,0-4.8,0.6-6.6,2
		c-2.8,2.3-5.7,7.7-5.7,10.3c0,1.3,0.4,2.8,1.3,3.9h-29.6l-5.7,6.2h56.3c0.1,0,0.6-0.2,2.5-2.8c1-1.4,1.3-2.1,1.3-2.6
		C767.6,593.8,767.1,593.7,767.1,593.7z" />
		<polygon class="st0" points="413.5,369.3 428.7,348.5 420.9,337.8 405.8,357 	" />
		<polygon class="st0" points="370.4,357 378.2,369.3 393.4,348.5 385.6,337.8 	" />
		<polygon class="st0" points="400.7,353.1 416,332.3 408.1,321.6 393,340.8 	" />
		<path class="st0"
			d="M444.6,536.4c0,0,25-17.8,12.8-42.1c-9.1-17.4-37.7-14.9-48.4-10.7l-0.5,0.6l-14,19c2-0.3,5.1-0.7,6.3-0.9
		c11.4-1.6,21.6-1.7,29.9,1.7c10.8,4.3,14.3,16.2,6.7,27l-1.9,2.2c0,0-10.6-3.3-21.7,0.3l-0.5,0.6l-0.1,0.1l-12.7,17.2
		c5.7-1.2,21.2-3.3,34.2,4c7.4,4.2,14.1,15.1,13.4,26.1c0,0-17.5,8.3-40.3-1.2c0,0-0.1,0-0.1,0l-0.2,0.3L392.9,600
		c6.9,4.2,32.6,16.8,60.7-10.1C480.7,563.7,456.1,539.4,444.6,536.4z" />
		<path class="st0"
			d="M341.4,582.2c-1.1-0.2,57.5-56.8,37.6-87.1c-15.2-23.2-46.3-12.1-48.3-11.3h0l-14.6,19.7
		c1.7-0.4,4.2-0.9,7.3-1.3c35.4-4.7,40.7,11.4,36.6,27.8c-4.8,19.3-35.3,55.2-47.6,69.2c1.2,2.7,1.4,3.1,2.6,5.8h59.5l17.2-23.2
		l0-0.1l-2.1,0L341.4,582.2z" />
		<path class="st0"
			d="M313.8,536.7c0-8.7-0.3-56.8-41.1-56.1c-46.1,0.8-53.4,62.7-42.6,99.3c5.7,19.3,20.5,26.2,34.1,26.6
		C314.8,606.5,313.8,545.4,313.8,536.7z M284.2,589.1c-54.8,3.8-31.7-86.9-28.8-90.7C293.5,496.1,296.9,542,284.2,589.1z" />
		<path class="st0"
			d="M146.2,599.2c1.2,2.7,1.4,3.1,2.6,5.8h59.5l17.2-23.2l0-0.1l-2.1,0l-48.3,0.5c-1.1-0.2,57.5-56.8,37.6-87.1
		c-15.2-23.2-46.3-12.1-48.3-11.3h0l-14.6,19.7c1.7-0.4,4.2-0.9,7.3-1.3c35.4-4.7,40.7,11.4,36.6,27.8
		C188.9,549.3,158.5,585.2,146.2,599.2z" />
		<path class="st0"
			d="M558.2,351.5L558.2,351.5l8.7,1.1c27.2-15.7,27.6-25.6,25.1-33.8c-3.3-10.4-14.4-10.7-14.4-10.7l-13.8,17.1
		c0,0.5,0,0.6,0,1.1c1.5,1.1,11.1,4,13.6,6.8c0.9,1-0.7,3.2-3.1,5.5C568.8,344.3,558.2,351.5,558.2,351.5z" />
	</g>
</svg>